<svg xmlns="http://www.w3.org/2000/svg" viewBox="0 0 190.41 146">
    <g id="logo-sm-dark">
    <path d="M53.93,146l78.71-2.4V146h57.77L123.18,0H62.56L0,146m53.93-20.31,78.71-2.4v6.43l-78.71-2.41Zm0-5.13V119l78.71-2.41V123Zm0-6.75v-1.62l78.71-2.4v6.42Zm0-6.75v-1.62l78.71-2.4v6.43Zm0-6.75V98.69l78.71-2.4v6.42Zm0-6.75V92.1l78.71-2.7V96Zm0,38.89,78.71-2.4v6.42l-78.71-2.4Zm77.32-56.82L58.07,73.24l1.79-1.56,64.08-2.4Zm.38.33L139,82.33,50.35,79.94l1.78-1.55Zm-8.17-7.1L65.8,66.53,67.58,65l48.64-2.39Zm-15-13,7.31,6.35L73.48,59.86l1.83-1.59ZM81.16,53.19l2-1.71,17.61-2.34,7.33,6.37Zm19-4.51L88.78,46.57l4.5-3.9ZM44.42,85.08l95-2.4,4.57,4H132.64v2.41L53.93,86.64H42.62Zm9.51,55.73v-1.62l78.71-2.39v6.42Z" style="fill:#FFFFFF"/>
    </g>
</svg>