<svg width="153" height="36" viewBox="0 0 153 36" fill="none" xmlns="http://www.w3.org/2000/svg">
<g clip-path="url(#clip0_286_5698)">
<path d="M113.681 34.7189V34.3203L132.876 33.7224V35.3025L113.681 34.7189ZM111.357 20.9822L134.524 20.3844L135.637 21.3666H132.876V21.9644L113.681 21.3666H110.92L111.357 20.9822ZM124.976 12L122.187 11.4733L123.286 10.5196L124.976 12ZM120.328 13.1103L120.807 12.6833L125.102 12.1139L126.891 13.6797L120.328 13.1103ZM126.975 13.7651L128.764 15.331L118.455 14.7616L118.906 14.3772L126.975 13.7651ZM130.637 16.9822L116.568 16.3986L117.004 16.0142L128.863 15.4306L130.637 16.9822ZM132.637 18.7331L134.426 20.299L112.808 19.7153L113.244 19.331L132.637 18.7331ZM132.538 18.6477L114.681 18.0498L115.117 17.6655L130.75 17.0676L132.538 18.6477ZM113.681 32.6548L132.876 32.057V33.637L113.681 33.0392V32.6548ZM113.681 23.0605V22.7046L132.876 22.0356V23.6584L113.681 23.0605ZM113.681 24.726V24.3274L132.876 23.7296V25.3096L113.681 24.726ZM113.681 26.3915V25.9929L132.876 25.395V26.9751L113.681 26.3915ZM113.681 28.057V27.6584L132.876 27.0605V28.6406L113.681 28.057ZM113.681 29.7224V29.3239L132.876 28.726V30.3203L113.681 29.7224ZM113.681 30.9894L132.876 30.3915V31.9716L113.681 31.3737V30.9894ZM83.9227 15.8292H73.9376V9.08186H83.7114C86.0493 9.08186 87.7956 9.73666 87.7956 12.4555C87.8097 14.7189 86.6548 15.8292 83.9227 15.8292ZM146.974 36L130.581 0H115.793L101.837 32.9111L101.33 23.9004C101.076 20.7687 99.3862 18.9609 97.2878 18.363V18.2634C101.372 17.0534 102.78 13.4235 102.78 10.0498C102.78 6.121 100.583 2.63345 97.9497 1.32384C95.9921 0.355872 93.5416 0 89.4997 0H46.3765L42.236 21.9787L37.1096 0H23.9135L18.7449 21.9787L14.6044 0H0L10.3794 36H25.4345L30.3214 16.0427H30.42L35.6309 36H50.4325L59.8824 3.3879V36H73.9376V24.9111H83.9086C86.4999 24.9111 87.4013 26.5196 87.5562 29.1958C87.8097 33.3808 87.8097 34.9466 88.3026 36L113.681 35.9858L132.876 35.3879V35.9858H146.974V36Z" fill="#2560B9"/>
<path d="M149.551 34.0499H148.889V36H148.607V34.0499H147.931V33.8079H149.551V34.0499Z" fill="#2560B9"/>
<path d="M150.368 33.8079L151.058 35.5872L151.748 33.8079H152.1V36H151.818V35.1459L151.847 34.2207L151.157 36H150.945L150.269 34.2349L150.297 35.1459V36H150.016V33.8079H150.368Z" fill="#2560B9"/>
</g>
<defs>
<clipPath id="clip0_286_5698">
<rect width="152.1" height="36" fill="white"/>
</clipPath>
</defs>
</svg>
