<svg width="168" height="40" viewBox="0 0 168 40" fill="none" xmlns="http://www.w3.org/2000/svg">
<g clip-path="url(#clip0_1402_4481)">
<path d="M125.564 37.9738V37.5378L146.767 36.8839V38.6121L125.564 37.9738ZM122.998 22.9493L148.587 22.2954L149.816 23.3697H146.767V24.0236L125.564 23.3697H122.516L122.998 22.9493ZM138.04 13.125L134.96 12.5489L136.173 11.5058L138.04 13.125ZM132.907 14.3394L133.436 13.8723L138.18 13.2496L140.156 14.9622L132.907 14.3394ZM140.249 15.0556L142.224 16.7682L130.838 16.1455L131.336 15.7251L140.249 15.0556ZM144.293 18.5743L128.753 17.9359L129.236 17.5156L142.333 16.8772L144.293 18.5743ZM146.502 20.4893L148.478 22.202L124.6 21.5636L125.082 21.1432L146.502 20.4893ZM146.393 20.3959L126.669 19.742L127.151 19.3216L144.418 18.6677L146.393 20.3959ZM125.564 35.7162L146.767 35.0623V36.7905L125.564 36.1366V35.7162ZM125.564 25.2224V24.8332L146.767 24.1014V25.8763L125.564 25.2224ZM125.564 27.044V26.6081L146.767 25.9542V27.6824L125.564 27.044ZM125.564 28.8657V28.4297L146.767 27.7758V29.504L125.564 28.8657ZM125.564 30.6873V30.2513L146.767 29.5974V31.3256L125.564 30.6873ZM125.564 32.5089V32.073L146.767 31.419V33.1628L125.564 32.5089ZM125.564 33.8946L146.767 33.2407V34.9689L125.564 34.3149V33.8946ZM92.6956 17.3132H81.6667V9.93327H92.4622C95.0445 9.93327 96.9733 10.6495 96.9733 13.6232C96.9889 16.0988 95.7133 17.3132 92.6956 17.3132ZM162.338 39.375L144.231 0H127.898L112.482 35.9964L111.922 26.141C111.642 22.7157 109.776 20.7384 107.458 20.0845V19.9755C111.969 18.6521 113.524 14.6819 113.524 10.992C113.524 6.69484 111.098 2.88034 108.189 1.44795C106.027 0.389235 103.32 0 98.8556 0H51.2244L46.6511 24.0391L40.9889 0H26.4133L20.7044 24.0391L16.1311 0H0L11.4644 39.375H28.0933L33.4911 17.5467H33.6L39.3556 39.375H55.7044L66.1422 3.70552V39.375H81.6667V27.2464H92.68C95.5422 27.2464 96.5378 29.0058 96.7089 31.9328C96.9889 36.5102 96.9889 38.2229 97.5333 39.375L125.564 39.3594L146.767 38.7055V39.3594H162.338V39.375Z" fill="white"/>
<path d="M165.184 37.242H164.453V39.375H164.142V37.242H163.396V36.9773H165.184V37.242Z" fill="white"/>
<path d="M166.087 36.9773L166.849 38.9235L167.611 36.9773H168V39.375H167.689V38.4408L167.72 37.4288L166.958 39.375H166.724L165.978 37.4444L166.009 38.4408V39.375H165.698V36.9773H166.087Z" fill="white"/>
</g>
<defs>
<clipPath id="clip0_1402_4481">
<rect width="168" height="39.375" fill="white"/>
</clipPath>
</defs>
</svg>
