<svg xmlns="http://www.w3.org/2000/svg" viewBox="0 0 299.06 72.47"><title>Asset 2</title>
    <g id="logo">
        <path d="M299.06,72.47,265.69,0H235.6L207.22,66.25l-1.05-18.14c-.5-6.3-3.95-10-8.22-11.17v-.2c8.33-2.44,11.17-9.74,11.17-16.54,0-7.92-4.47-14.92-9.85-17.56C195.31.71,190.34,0,182.12,0H94.36L85.92,44.25,75.52,0H48.66L38.15,44.25,29.72,0H0L21.11,72.47H51.74l9.95-40.2h.2l10.6,40.2h30.12L121.83,6.8V72.47h28.63V50.14h20.29c5.28,0,7.11,3.24,7.41,8.62.51,8.43.51,11.57,1.53,13.71l51.63,0,39.06-1.19v1.22ZM170.75,31.87H150.46V18.27h19.89c4.77,0,8.32,1.32,8.32,6.8C178.67,29.64,176.34,31.87,170.75,31.87Zm60.57,30.52,39.06-1.19v3.18l-39.06-1.19Zm0-2.55V59l39.06-1.2V61Zm0-3.35v-.8l39.06-1.19v3.18Zm0-3.35v-.8l39.06-1.2v3.19Zm0-3.35V49l39.06-1.2V51Zm0-3.35v-.73l39.06-1.34v3.26Zm0,19.3,39.06-1.19v3.18l-39.06-1.19Zm38.38-28.2-36.33-1.19.89-.77,31.81-1.19Zm.19.16,3.64,3.16-44-1.18.89-.77Zm-4.06-3.52L237.21,33l.89-.77,24.14-1.19Zm-7.46-6.47L262,30.86l-21-1.15.91-.79ZM244.84,26.4l1-.85,8.74-1.16,3.64,3.16Zm9.44-2.24-5.66-1,2.23-1.94ZM226.6,42.23,273.73,41,276,43h-5.62v1.2L231.32,43H225.7Zm4.72,27.66v-.8l39.06-1.19v3.18Z" style="fill:#005295"/>
    </g>
</svg>