<?xml version="1.0" encoding="utf-8"?>
<!-- Generator: Adobe Illustrator 28.0.0, SVG Export Plug-In . SVG Version: 6.00 Build 0)  -->
<svg version="1.1" id="Layer_1" xmlns="http://www.w3.org/2000/svg" xmlns:xlink="http://www.w3.org/1999/xlink" x="0px" y="0px"
	 viewBox="0 0 512 512" style="enable-background:new 0 0 512 512;" xml:space="preserve">
<style type="text/css">
	.st0{fill:#0069B1;}
</style>
<path class="st0" d="M168.4,59.7L14.5,418.7l0-0.2L0,452.3l145.1-0.1l211.6-6.5v6.5H512L331.4,59.7H168.4z M250.9,174.5l18.6,16.1
	l-30.7-5.7L250.9,174.5z M223.6,198.1l47.4-6.2l19.7,17.1l-72.3-6.2L223.6,198.1z M202.7,216.5l89-6.7l19.7,17.1l-113.6-6.2
	L202.7,216.5z M356.7,444.7l-211.6-6.4V434l211.6-6.5V444.7z M356.7,426.6l-211.6-6.5v-4.2l211.6-6.5V426.6z M356.7,408.4
	l-211.6-6.5v-4.2l211.6-6.5V408.4z M356.7,390.4l-211.6-6.5v-4.3l211.6-6.5V390.4z M356.7,372.1l-211.6-6.4v-4.3l211.6-6.5V372.1z
	 M356.7,353.9l-211.6-6.4v-4.3l211.6-6.5V353.9z M356.7,335.8l-211.6-6.4V325l211.6-6.5V335.8z M356.7,317.7l-211.6-6.5v-3.9
	l211.6-7.3V317.7z M387.1,292.8h-30.4v6.5l-211.6-6.5h-30.4l4.8-4.2l255.4-6.5L387.1,292.8z M373.7,281.1l-238.3-6.4l4.8-4.2
	L354,264L373.7,281.1z M352.9,263.1l-196.9-6.5l4.8-4.2l172.3-6.5L352.9,263.1z M176.9,238.6l4.8-4.2l130.7-6.4l19.6,16.9
	L176.9,238.6z"/>
</svg>
